#!OML:ASF X:\für Bonn\!DataBase\2005_08_11_Bastian_Final\c3d\Bastian.ASF
:FULLY-SPECIFIED
:DEGREES
46
root -1.36092 12.2431 1.82313 166.76 -1.81811 -171.301
lowerback 27.1725 -0.588183 4.39309
upperback 6.58569 -1.01049 2.31391
thorax -7.66174 -1.24214 0.464076
lowerneck -8.67527 -6.60329 -4.81159
upperneck -9.25218 -6.86174 12.9865
head -0.641775 -2.90643 4.52818
rclavicle 1.28216e-014 1.31198e-014
rhumerus 73.2477 12.1769 13.1848
rradius 39.0728
rwrist -64.8927
rhand -47.1348 -8.17619
rfingers 7.12502
rthumb -19.8369 -37.1839
lclavicle 1.28216e-014 1.31198e-014
lhumerus 70.9235 -18.9415 -32.1375
lradius 31.6884
lwrist 28.2931
lhand -45.1047 21.8988
lfingers 7.12502
lthumb -17.8844 51.0965
rfemur -35.4581 -9.98091 30.2885
rtibia 105.391
rfoot -42.5619 -4.00439
rtoes -1.64794
lfemur -37.2156 8.14225 -7.01047
ltibia 111.526
lfoot -40.93 -13.7072
ltoes -14.8038
47
root -1.36243 12.0057 1.82651 166.692 -1.76556 -171.302
lowerback 27.3987 -0.574902 4.43534
upperback 6.59374 -0.983753 2.33495
thorax -7.76306 -1.23835 0.46205
lowerneck -8.63573 -6.64284 -4.91915
upperneck -9.40338 -6.87801 13.0817
head -0.681791 -2.91108 4.57789
rclavicle -1.47101e-014 3.97569e-016
rhumerus 73.2316 11.9619 13.4577
rradius 39.1214
rwrist -65.3027
rhand -47.1713 -8.2144
rfingers 7.12502
rthumb -19.872 -37.2184
lclavicle -1.47101e-014 3.97569e-016
lhumerus 70.8035 -18.6739 -32.4478
lradius 31.7436
lwrist 28.3248
lhand -45.2163 21.7623
lfingers 7.12502
lthumb -17.9918 50.9501
rfemur -36.7971 -10.184 30.3121
rtibia 108.023
rfoot -42.8453 -3.9509
rtoes -1.76942
lfemur -38.399 8.9597 -6.69207
ltibia 114.017
lfoot -41.3755 -14.2576
ltoes -14.9819
48
root -1.36404 11.768 1.82953 166.586 -1.70357 -171.306
lowerback 27.6516 -0.552879 4.48943
upperback 6.61749 -0.947326 2.343
thorax -7.85944 -1.23209 0.435991
lowerneck -8.57616 -6.68643 -5.00441
upperneck -9.55584 -6.90207 13.177
head -0.725479 -2.92113 4.62424
rclavicle 8.64713e-015 -2.50469e-014
rhumerus 73.18 11.7651 13.6855
rradius 39.1652
rwrist -65.6648
rhand -47.274 -8.24517
rfingers 7.12502
rthumb -19.9707 -37.239
lclavicle 8.64713e-015 -2.50469e-014
lhumerus 70.6547 -18.365 -32.5643
lradius 31.7595
lwrist 28.1364
lhand -45.2488 21.6455
lfingers 7.12502
lthumb -18.023 50.8304
rfemur -38.0794 -10.4168 30.3158
rtibia 110.638
rfoot -43.0997 -3.79902
rtoes -1.69455
lfemur -39.5087 9.87961 -6.34326
ltibia 116.458
lfoot -41.8691 -14.7516
ltoes -15.4752
49
root -1.36509 11.5283 1.83089 166.471 -1.69905 -171.303
lowerback 27.8807 -0.546057 4.517
upperback 6.66069 -0.942734 2.36965
thorax -7.92225 -1.24182 0.455269
lowerneck -8.57154 -6.70243 -5.05344
upperneck -9.67843 -6.8971 13.1987
head -0.759454 -2.91553 4.64163
rclavicle 6.95746e-016 -3.10104e-014
rhumerus 73.1551 11.5381 14.0086
rradius 39.2288
rwrist -66.0691
rhand -47.4251 -8.33053
rfingers 7.12502
rthumb -20.1159 -37.3091
lclavicle 6.95746e-016 -3.10104e-014
lhumerus 70.4217 -18.0416 -32.3935
lradius 31.6962
lwrist 27.7444
lhand -45.2387 21.5588
lfingers 7.12502
lthumb -18.0133 50.7446
rfemur -39.3371 -10.7504 30.3048
rtibia 113.242
rfoot -43.2971 -3.69884
rtoes -1.77053
lfemur -40.59 10.7476 -5.95508
ltibia 118.854
lfoot -42.2694 -15.5091
ltoes -15.1479
50
root -1.36639 11.286 1.83105 166.291 -1.67838 -171.355
lowerback 28.1702 -0.517213 4.48917
upperback 6.71615 -0.928832 2.37898
thorax -8.00064 -1.2486 0.485625
lowerneck -8.54106 -6.71099 -5.05795
upperneck -9.80487 -6.88734 13.1962
head -0.802102 -2.91027 4.6454
rclavicle 1.2921e-014 -2.06736e-014
rhumerus 73.1131 11.3465 14.238
rradius 39.2744
rwrist -66.3484
rhand -47.5665 -8.40177
rfingers 7.12502
rthumb -20.2518 -37.366
lclavicle 1.2921e-014 -2.06736e-014
lhumerus 70.1735 -17.711 -32.0262
lradius 31.5876
lwrist 27.2417
lhand -45.1972 21.4969
lfingers 7.12502
lthumb -17.9734 50.6865
rfemur -40.5343 -11.1453 30.1971
rtibia 115.836
rfoot -43.4616 -3.43255
rtoes -1.61629
lfemur -41.5376 11.7018 -5.57959
ltibia 121.2
lfoot -42.7287 -16.2484
ltoes -14.9546
51
root -1.36759 11.0438 1.83107 166.085 -1.65349 -171.404
lowerback 28.4922 -0.483197 4.45554
upperback 6.78906 -0.915656 2.39627
thorax -8.07436 -1.25859 0.529231
lowerneck -8.57684 -6.72559 -5.07292
upperneck -9.91285 -6.88346 13.1875
head -0.828207 -2.90382 4.64669
rclavicle 8.74653e-015 -3.97569e-016
rhumerus 73.0792 11.0966 14.7346
rradius 39.3832
rwrist -66.8478
rhand -47.787 -8.40651
rfingers 7.12502
rthumb -20.4637 -37.3481
lclavicle 8.74653e-015 -3.97569e-016
lhumerus 69.9136 -17.3641 -31.5317
lradius 31.4401
lwrist 26.7281
lhand -45.1749 21.4782
lfingers 7.12502
lthumb -17.952 50.6697
rfemur -41.7247 -11.622 30.0859
rtibia 118.384
rfoot -43.4995 -3.21032
rtoes -1.47983
lfemur -42.43 12.7577 -5.14549
ltibia 123.508
lfoot -43.1773 -17.007
ltoes -14.7055
52
root -1.36851 10.8052 1.83052 165.873 -1.6305 -171.476
lowerback 28.8424 -0.436149 4.39091
upperback 6.84462 -0.889346 2.41011
thorax -8.18083 -1.26096 0.583585
lowerneck -8.58884 -6.74259 -5.11568
upperneck -9.98405 -6.88877 13.2043
head -0.844095 -2.90322 4.65973
rclavicle 2.78299e-014 -1.94809e-014
rhumerus 73.0169 10.8577 15.2913
rradius 39.5205
rwrist -67.4063
rhand -48.0327 -8.43849
rfingers 7.12502
rthumb -20.6998 -37.3546
lclavicle 2.78299e-014 -1.94809e-014
lhumerus 69.6734 -17.0356 -30.953
lradius 31.3125
lwrist 26.1767
lhand -45.1337 21.5887
lfingers 7.12502
lthumb -17.9123 50.7838
rfemur -42.8839 -12.2153 29.9297
rtibia 120.869
rfoot -43.505 -2.99079
rtoes -1.46469
lfemur -43.2554 13.9084 -4.69569
ltibia 125.74
lfoot -43.6219 -17.7826
ltoes -14.3803
53
root -1.36995 10.5719 1.82984 165.608 -1.61261 -171.572
lowerback 29.2641 -0.391176 4.31745
upperback 6.91909 -0.876184 2.40066
thorax -8.30039 -1.27294 0.623491
lowerneck -8.66077 -6.75542 -5.07744
upperneck -10.0288 -6.89554 13.1716
head -0.848371 -2.90225 4.64244
rclavicle 9.93923e-015 -3.97569e-016
rhumerus 72.9569 10.5736 15.991
rradius 39.6924
rwrist -68.0778
rhand -48.3035 -8.47203
rfingers 7.12502
rthumb -20.96 -37.3595
lclavicle 9.93923e-015 -3.97569e-016
lhumerus 69.4651 -16.6809 -30.5635
lradius 31.2461
lwrist 25.9904
lhand -45.1513 21.686
lfingers 7.12502
lthumb -17.9293 50.8796
rfemur -43.9288 -12.9099 29.7029
rtibia 123.272
rfoot -43.5103 -2.71329
rtoes -1.34344
lfemur -43.9184 15.1189 -4.22145
ltibia 127.89
lfoot -44.1132 -18.5835
ltoes -13.9657
54
root -1.3715 10.339 1.82916 165.343 -1.59526 -171.669
lowerback 29.6973 -0.333399 4.22118
upperback 6.9821 -0.850058 2.41118
thorax -8.43713 -1.27824 0.695082
lowerneck -8.71299 -6.76474 -5.08045
upperneck -10.0675 -6.89814 13.1474
head -0.852324 -2.89965 4.63497
rclavicle 0 -1.03368e-014
rhumerus 72.8625 10.293 16.7137
rradius 39.8978
rwrist -68.7431
rhand -48.5922 -8.53784
rfingers 7.12502
rthumb -21.2373 -37.3944
lclavicle 0 -1.03368e-014
lhumerus 69.3218 -16.3563 -30.5219
lradius 31.3057
lwrist 26.1924
lhand -45.2699 21.9253
lfingers 7.12502
lthumb -18.0433 51.1084
rfemur -44.943 -13.6937 29.4646
rtibia 125.634
rfoot -43.5558 -2.44776
rtoes -1.10608
lfemur -44.5327 16.4483 -3.685
ltibia 130.005
lfoot -44.6286 -19.3757
ltoes -13.5111
55
root -1.37391 10.101 1.82853 165.075 -1.57856 -171.743
lowerback 30.1012 -0.287192 4.18285
upperback 7.06556 -0.830695 2.40657
thorax -8.5354 -1.28896 0.717226
lowerneck -8.79274 -6.78466 -5.07202
upperneck -10.1074 -6.91014 13.1489
head -0.850556 -2.8996 4.63237
rclavicle -1.16289e-014 -1.23246e-014
rhumerus 72.7371 9.99414 17.4479
rradius 40.1127
rwrist -69.4489
rhand -48.9088 -8.54241
rfingers 7.12502
rthumb -21.5415 -37.3645
lclavicle -1.16289e-014 -1.23246e-014
lhumerus 69.1865 -16.0192 -30.6479
lradius 31.4681
lwrist 26.6786
lhand -45.481 22.1613
lfingers 7.12502
lthumb -18.2464 51.3255
rfemur -45.9201 -14.5825 29.2408
rtibia 127.973
rfoot -43.6928 -2.2947
rtoes -1.10906
lfemur -45.1227 17.9434 -3.06247
ltibia 132.135
lfoot -45.2414 -20.0849
ltoes -13.4778
56
root -1.37625 9.85915 1.82867 164.807 -1.5784 -171.835
lowerback 30.5116 -0.240173 4.09851
upperback 7.14029 -0.821845 2.41262
thorax -8.64605 -1.30348 0.782198
lowerneck -8.86747 -6.78095 -5.04823
upperneck -10.1178 -6.90246 13.0915
head -0.846385 -2.89199 4.60974
rclavicle -5.1684e-015 4.96962e-015
rhumerus 72.6473 9.712 18.1768
rradius 40.3175
rwrist -70.1698
rhand -49.239 -8.49057
rfingers 7.12502
rthumb -21.8586 -37.276
lclavicle -5.1684e-015 4.96962e-015
lhumerus 69.098 -15.7414 -30.9773
lradius 31.6672
lwrist 27.3929
lhand -45.7182 22.5162
lfingers 7.12502
lthumb -18.4746 51.6589
rfemur -46.8424 -15.586 28.9732
rtibia 130.298
rfoot -43.9845 -2.16594
rtoes -1.01598
lfemur -45.6669 19.5823 -2.38999
ltibia 134.264
lfoot -45.9026 -20.735
ltoes -13.3674
57
root -1.37878 9.6178 1.82913 164.564 -1.56728 -171.931
lowerback 30.8724 -0.181157 4.0219
upperback 7.23041 -0.801714 2.4073
thorax -8.71433 -1.31285 0.823641
lowerneck -8.95045 -6.7945 -4.99044
upperneck -10.1566 -6.91205 13.0481
head -0.848327 -2.89226 4.58553
rclavicle -1.2921e-014 -1.09332e-014
rhumerus 72.4931 9.42908 18.8045
rradius 40.5143
rwrist -70.7574
rhand -49.5737 -8.46757
rfingers 7.12502
rthumb -22.1799 -37.2151
lclavicle -1.2921e-014 -1.09332e-014
lhumerus 68.9708 -15.4345 -30.8657
lradius 31.7521
lwrist 27.6635
lhand -45.9174 22.7945
lfingers 7.12502
lthumb -18.6663 51.9189
rfemur -47.7091 -16.6455 28.7068
rtibia 132.57
rfoot -44.4548 -2.14987
rtoes -0.964035
lfemur -46.2072 21.3367 -1.68214
ltibia 136.375
lfoot -46.5776 -21.2965
ltoes -13.4285
58
root -1.38163 9.3824 1.82993 164.359 -1.56362 -172.025
lowerback 31.1968 -0.12995 3.93479
upperback 7.30644 -0.79073 2.4139
thorax -8.78077 -1.32425 0.887131
lowerneck -9.00771 -6.7922 -5.00315
upperneck -10.1748 -6.90117 13.0302
head -0.846 -2.88268 4.58155
rclavicle -7.95139e-015 -1.2921e-014
rhumerus 72.3959 9.15963 19.3778
rradius 40.6798
rwrist -71.3498
rhand -49.8815 -8.35381
rfingers 7.12502
rthumb -22.4753 -37.0659
lclavicle -7.95139e-015 -1.2921e-014
lhumerus 68.8451 -15.1968 -30.5619
lradius 31.7759
lwrist 27.85
lhand -46.1663 23.0462
lfingers 7.12502
lthumb -18.9056 52.1475
rfemur -48.5414 -17.7148 28.4355
rtibia 134.738
rfoot -45.0205 -2.05571
rtoes -0.606206
lfemur -46.722 23.2088 -0.922954
ltibia 138.429
lfoot -47.2777 -21.8055
ltoes -13.6127
59
root -1.38484 9.15849 1.83101 164.175 -1.58338 -172.125
lowerback 31.4911 -0.0830674 3.84871
upperback 7.37817 -0.784225 2.41152
thorax -8.83745 -1.33613 0.94056
lowerneck -8.96097 -6.79389 -5.0062
upperneck -10.2774 -6.88847 13.0237
head -0.884766 -2.87721 4.58388
rclavicle 1.66979e-014 -6.75868e-015
rhumerus 72.2855 8.95623 19.8016
rradius 40.7874
rwrist -71.7207
rhand -50.1465 -8.28
rfingers 7.12502
rthumb -22.7297 -36.9612
lclavicle 1.66979e-014 -6.75868e-015
lhumerus 68.7492 -14.9748 -30.2249
lradius 31.7962
lwrist 28.0079
lhand -46.399 23.2793
lfingers 7.12502
lthumb -19.1294 52.3586
rfemur -49.2733 -18.8267 28.1551
rtibia 136.761
rfoot -45.6696 -2.08157
rtoes -0.556193
lfemur -47.1988 25.1013 -0.181383
ltibia 140.37
lfoot -47.8706 -22.2856
ltoes -13.5108
